<?xml version="1.0" standalone="no"?>
<!DOCTYPE svg PUBLIC "-//W3C//DTD SVG 20010904//EN"
 "http://www.w3.org/TR/2001/REC-SVG-20010904/DTD/svg10.dtd">
<svg version="1.0" xmlns="http://www.w3.org/2000/svg"
 width="1280.000000pt" height="853.000000pt" viewBox="0 0 1280.000000 853.000000"
 preserveAspectRatio="xMidYMid meet">
<g transform="translate(0.000000,853.000000) scale(0.100000,-0.100000)"
fill="#000000" stroke="none">
<path d="M4534 6170 c-1265 -136 -2321 -250 -2347 -254 -56 -9 -104 -44 -94
-70 4 -9 26 -25 49 -36 24 -10 556 -156 1183 -324 627 -169 1150 -311 1162
-316 12 -5 24 -20 27 -32 5 -26 77 -1724 76 -1805 0 -29 -3 -53 -7 -53 -23 0
-1410 293 -1418 300 -5 4 -39 10 -75 13 -83 8 -166 33 -191 58 -10 10 -28 19
-40 19 -11 0 -377 151 -812 337 -436 185 -826 347 -867 361 -104 34 -237 35
-335 3 -296 -98 -569 -386 -655 -691 -25 -92 -28 -237 -5 -325 27 -105 92
-221 166 -295 113 -114 149 -127 1069 -411 448 -138 822 -257 830 -264 8 -7
20 -10 27 -8 20 7 183 -47 183 -61 0 -9 -57 -27 -167 -55 -93 -22 -176 -41
-185 -41 -41 0 -119 -36 -193 -89 -44 -32 -96 -67 -116 -79 -35 -21 -48 -44
-49 -87 0 -11 -14 -37 -30 -59 -22 -29 -28 -45 -23 -67 5 -28 5 -29 -38 -29
-56 0 -205 26 -260 45 -48 17 -59 18 -59 6 0 -20 177 -54 315 -60 153 -8 183
-16 273 -79 49 -33 62 -37 138 -42 46 -3 85 -9 87 -15 1 -8 -129 -80 -178 -99
-5 -2 -7 -6 -4 -10 4 -4 69 24 145 61 l139 68 110 -2 c164 -4 230 9 343 66 53
27 135 61 182 76 110 36 137 50 182 92 l37 36 733 -421 c403 -231 758 -431
788 -443 46 -19 74 -23 165 -23 102 -1 115 2 187 32 208 89 420 310 558 580
32 62 47 82 62 82 12 0 64 -13 117 -29 811 -249 1899 -292 2761 -110 318 67
632 179 835 298 232 136 387 314 416 478 6 32 54 597 108 1256 54 659 102
1202 107 1206 5 5 231 73 503 152 368 106 498 140 510 132 9 -5 27 -36 40 -68
30 -76 37 -204 22 -390 -11 -137 -95 -1029 -107 -1132 -4 -44 -10 -55 -32 -66
-21 -10 -27 -19 -25 -42 2 -19 -7 -39 -26 -61 -32 -36 -48 -97 -57 -213 -8
-104 -49 -326 -81 -441 -15 -52 -27 -117 -27 -145 -1 -44 2 -51 31 -71 37 -24
165 -47 213 -37 17 3 38 16 46 28 17 26 17 31 16 325 -1 124 3 257 8 295 14
105 12 206 -5 235 -27 47 -28 53 -17 71 9 15 7 23 -13 47 l-24 28 40 332 c80
683 92 810 93 1002 1 182 0 186 -27 253 -16 38 -27 71 -24 74 3 3 361 108 796
234 727 210 859 252 875 278 19 30 -39 68 -121 81 -104 17 -5660 660 -5690
659 -15 -1 -1063 -112 -2329 -249z"/>
</g>
</svg>
